<?xml version="1.0" standalone="no"?>
<!DOCTYPE svg PUBLIC "-//W3C//DTD SVG 20010904//EN"
 "http://www.w3.org/TR/2001/REC-SVG-20010904/DTD/svg10.dtd">
<svg version="1.0" xmlns="http://www.w3.org/2000/svg"
 width="512.000000pt" height="512.000000pt" viewBox="0 0 512.000000 512.000000"
 preserveAspectRatio="xMidYMid meet">
<metadata>
Created by potrace 1.14, written by Peter Selinger 2001-2017
</metadata>
<g transform="translate(0.000000,512.000000) scale(0.100000,-0.100000)"
fill="#000000" stroke="none">
<path d="M1285 5105 c-266 -41 -509 -146 -711 -306 -80 -64 -191 -172 -234
-229 -14 -17 -29 -37 -35 -43 -77 -91 -178 -286 -229 -439 -31 -93 -43 -145
-64 -272 -4 -23 -7 -594 -7 -1271 l0 -1230 23 -100 c13 -55 25 -110 28 -122
15 -72 94 -257 156 -363 68 -119 223 -298 337 -390 165 -134 363 -235 566
-289 185 -50 177 -49 1485 -47 1225 2 1225 2 1315 24 186 46 257 71 399 144
335 171 606 487 727 849 17 51 33 105 35 119 3 14 7 32 9 40 3 8 7 32 11 54 3
21 8 48 12 60 3 11 7 568 8 1236 2 1276 2 1284 -42 1460 -83 334 -292 638
-581 849 -64 45 -84 58 -188 116 -63 35 -212 92 -300 114 -83 21 -104 25 -207
40 -102 15 -2416 11 -2513 -4z"/>
</g>
</svg>
